<svg width="11" height="7" viewBox="0 0 11 7" fill="none" xmlns="http://www.w3.org/2000/svg">
<path fill-rule="evenodd" clip-rule="evenodd" d="M5.40552 6.77202L9.8555 2.22702C9.95802 2.12108 10.0154 1.97944 10.0154 1.83202C10.0154 1.6846 9.95802 1.54296 9.8555 1.43702L9.5285 1.10302C9.47818 1.05131 9.418 1.01021 9.35153 0.982147C9.28506 0.954083 9.21366 0.939625 9.14151 0.939625C9.06936 0.939625 8.99793 0.954083 8.93146 0.982147C8.86499 1.01021 8.80484 1.05131 8.75452 1.10302L5.0155 4.91902L1.27451 1.09802C1.22412 1.04643 1.16393 1.00544 1.09747 0.977459C1.03101 0.949473 0.959624 0.935059 0.887512 0.935059C0.8154 0.935059 0.744011 0.949473 0.677551 0.977459C0.611091 1.00544 0.550878 1.04643 0.500488 1.09802L0.173492 1.43302C0.0709736 1.53896 0.0136719 1.6806 0.0136719 1.82802C0.0136719 1.97544 0.0709736 2.11708 0.173492 2.22302L4.6275 6.77202C4.67817 6.82385 4.73868 6.86502 4.80548 6.89314C4.87228 6.92125 4.94403 6.93574 5.01651 6.93574C5.08899 6.93574 5.16074 6.92125 5.22754 6.89314C5.29434 6.86502 5.35485 6.82385 5.40552 6.77202V6.77202Z" fill="white"/>
</svg>
