<svg width="11" height="7" viewBox="0 0 11 7" fill="none" xmlns="http://www.w3.org/2000/svg">
<path fill-rule="evenodd" clip-rule="evenodd" d="M5.39185 6.77202L9.84183 2.22702C9.94435 2.12108 10.0017 1.97944 10.0017 1.83202C10.0017 1.6846 9.94435 1.54296 9.84183 1.43702L9.51483 1.10302C9.46451 1.05131 9.40433 1.01021 9.33786 0.982147C9.27139 0.954083 9.19999 0.939625 9.12784 0.939625C9.05569 0.939625 8.98425 0.954083 8.91779 0.982147C8.85132 1.01021 8.79116 1.05131 8.74084 1.10302L5.00183 4.91902L1.26083 1.09802C1.21044 1.04643 1.15026 1.00544 1.0838 0.977459C1.01734 0.949473 0.945952 0.935059 0.87384 0.935059C0.801728 0.935059 0.730339 0.949473 0.663879 0.977459C0.59742 1.00544 0.537206 1.04643 0.486816 1.09802L0.159821 1.43302C0.0573017 1.53896 0 1.6806 0 1.82802C0 1.97544 0.0573017 2.11708 0.159821 2.22302L4.61383 6.77202C4.6645 6.82385 4.72501 6.86502 4.79181 6.89314C4.85861 6.92125 4.93036 6.93574 5.00284 6.93574C5.07531 6.93574 5.14707 6.92125 5.21387 6.89314C5.28067 6.86502 5.34118 6.82385 5.39185 6.77202Z" fill="#C54FEE"/>
</svg>
