<svg width="18" height="18" viewBox="0 0 18 18" fill="none" xmlns="http://www.w3.org/2000/svg">
<g clip-path="url(#clip0)">
<path d="M9 -1C4.16424 -1 0.244537 2.92008 0.244537 7.75547C0.244537 9.8167 0.961212 11.7068 2.15416 13.2014C2.63759 13.8053 2.88739 14.771 2.44685 15.3406C2.13234 15.748 1.78586 16.0264 1.41191 16.076C0.192621 16.2389 1.85959 17.6986 4.71726 16.5843C5.4377 16.3033 6.5588 16.1923 7.3176 16.3439C7.86122 16.453 8.42365 16.5109 9.00038 16.5109C13.8361 16.5109 17.7558 12.5912 17.7558 7.75584C17.7558 2.92045 13.8354 -1 9 -1Z" fill="#CB73E9"/>
</g>
<defs>
<clipPath id="clip0">
<rect width="18" height="18" fill="white"/>
</clipPath>
</defs>
</svg>
