<svg width="18" height="16" viewBox="0 0 18 16" fill="none" xmlns="http://www.w3.org/2000/svg">
<path d="M2.44754 15.5717C2.44754 15.5717 2.43155 15.9741 2.82459 15.9741C3.31356 15.9741 7.3619 15.9688 7.3619 15.9688L7.36856 12.2509C7.36856 12.2509 7.30461 11.638 7.8995 11.638H9.78211C10.4856 11.638 10.4423 12.2509 10.4423 12.2509L10.4343 15.9568C10.4343 15.9568 14.2728 15.9568 14.8757 15.9568C15.3746 15.9568 15.352 15.4558 15.352 15.4558V8.60157L9.09262 3.03369L2.44754 8.60157V15.5717Z" fill="#CB73E9"/>
<path d="M0 8.08324C0 8.08324 0.564249 9.12314 1.79467 8.08324L9.14789 1.86252L16.0421 8.04461C17.4664 9.07184 18 8.04461 18 8.04461L9.14789 0.0258789L0 8.08324Z" fill="#CB73E9"/>
<path d="M15.8749 1.8479H14.1016L14.1089 3.99831L15.8749 5.49653V1.8479Z" fill="#CB73E9"/>
</svg>
