<svg width="18" height="19" viewBox="0 0 18 19" fill="none" xmlns="http://www.w3.org/2000/svg">
<g clip-path="url(#clip0)">
<path d="M8.99955 0.935059C5.34587 0.935059 2.37305 3.90789 2.37305 7.56193C2.37305 8.51505 2.56813 9.42507 2.95258 10.2669C4.60939 13.8924 7.78596 17.7202 8.72029 18.8068C8.79029 18.8881 8.89234 18.9349 8.99974 18.9349C9.10713 18.9349 9.20919 18.8881 9.27919 18.8068C10.2131 17.7204 13.3897 13.8928 15.0471 10.2669C15.4317 9.42507 15.6266 8.51505 15.6266 7.56193C15.6262 3.90789 12.6534 0.935059 8.99955 0.935059ZM8.99955 11.004C7.10161 11.004 5.55735 9.4597 5.55735 7.56175C5.55735 5.66362 7.10161 4.11936 8.99955 4.11936C10.8975 4.11936 12.4418 5.66362 12.4418 7.56175C12.4419 9.4597 10.8977 11.004 8.99955 11.004Z" fill="white"/>
</g>
<defs>
<clipPath id="clip0">
<rect y="0.935059" width="18" height="18" fill="white"/>
</clipPath>
</defs>
</svg>
