<svg width="18" height="19" viewBox="0 0 18 19" fill="none" xmlns="http://www.w3.org/2000/svg">
<g clip-path="url(#clip0)">
<path d="M8.9998 0.935059C5.34612 0.935059 2.37329 3.90789 2.37329 7.56193C2.37329 8.51505 2.56837 9.42507 2.95282 10.2669C4.60964 13.8924 7.7862 17.7202 8.72053 18.8068C8.79053 18.8881 8.89259 18.9349 8.99998 18.9349C9.10738 18.9349 9.20943 18.8881 9.27943 18.8068C10.2134 17.7204 13.39 13.8928 15.0473 10.2669C15.432 9.42507 15.6269 8.51505 15.6269 7.56193C15.6265 3.90789 12.6537 0.935059 8.9998 0.935059ZM8.9998 11.004C7.10185 11.004 5.5576 9.4597 5.5576 7.56175C5.5576 5.66362 7.10185 4.11936 8.9998 4.11936C10.8977 4.11936 12.442 5.66362 12.442 7.56175C12.4422 9.4597 10.8979 11.004 8.9998 11.004Z" fill="#CB73E9"/>
</g>
<defs>
<clipPath id="clip0">
<rect y="0.935059" width="18" height="18" fill="white"/>
</clipPath>
</defs>
</svg>
