<svg width="18" height="18" viewBox="0 0 18 18" fill="none" xmlns="http://www.w3.org/2000/svg">
<path d="M9.00058 7.104C10.9592 7.104 12.5526 5.51061 12.5526 3.552C12.5526 1.59339 10.9592 0 9.00058 0C7.04197 0 5.44858 1.59339 5.44858 3.552C5.44858 5.51061 7.04197 7.104 9.00058 7.104Z" fill="#CB73E9"/>
<path d="M13.7669 8.82533C13.7654 8.82485 13.7625 8.82376 13.761 8.82339C13.2985 8.71042 11.8822 8.5123 11.8822 8.5123C11.7223 8.46309 11.5515 8.54776 11.494 8.70551L9.36223 14.5545C9.23926 14.8919 8.76204 14.8919 8.63908 14.5545L6.50732 8.70551C6.46089 8.57812 6.34065 8.49824 6.2118 8.49824C6.18126 8.49824 4.72508 8.70242 4.24029 8.82297C2.91556 9.15236 2.07999 10.455 2.07999 11.8126V16.6794C2.07999 17.4087 2.67126 18 3.40059 18H14.5995C15.3288 18 15.9201 17.4087 15.9201 16.6794V11.7964C15.92 10.4447 15.0517 9.24515 13.7669 8.82533Z" fill="#CB73E9"/>
<path d="M9.80454 8.40079C9.71945 8.30806 9.59509 8.26146 9.46927 8.26146H8.53078C8.40497 8.26146 8.28054 8.30812 8.19551 8.40079C8.06382 8.5443 8.04466 8.75164 8.13818 8.91364L8.63988 9.66994L8.40503 11.6512L8.86751 12.8815C8.9126 13.0052 9.08757 13.0052 9.13266 12.8815L9.59515 11.6512L9.3603 9.66994L9.862 8.91364C9.95539 8.75164 9.93624 8.5443 9.80454 8.40079Z" fill="#CB73E9"/>
</svg>
