<svg width="18" height="19" viewBox="0 0 18 19" fill="none" xmlns="http://www.w3.org/2000/svg">
<path fill-rule="evenodd" clip-rule="evenodd" d="M17.5885 15.178L14.8095 12.391C14.5332 12.1258 14.1629 11.981 13.78 11.9883C13.397 11.9956 13.0325 12.1545 12.7665 12.43L11.3665 13.83L11.0895 13.676C8.58029 12.4056 6.54465 10.3639 5.2815 7.85104C5.2295 7.75704 5.18153 7.66604 5.13153 7.58004L6.07153 6.63904L6.53253 6.17505C6.80787 5.90759 6.96633 5.54216 6.97345 5.15837C6.98057 4.77458 6.83572 4.40353 6.5705 4.12605L3.7945 1.34304C3.51839 1.07733 3.14808 0.932159 2.76496 0.939473C2.38183 0.946786 2.01729 1.10598 1.75153 1.38204L0.967531 2.17204L0.989504 2.19304C0.72016 2.54035 0.502857 2.92506 0.344484 3.33505C0.200005 3.70735 0.103271 4.09644 0.0565201 4.49304C-0.30948 7.54304 1.08051 10.332 4.85651 14.115C10.0715 19.344 14.2745 18.949 14.4565 18.93C14.8533 18.8823 15.2425 18.7842 15.6145 18.638C16.0217 18.4795 16.4037 18.2625 16.7485 17.994L16.7655 18.009L17.5595 17.23C17.8338 16.9609 17.9907 16.5943 17.9962 16.21C18.0016 15.8257 17.8551 15.4549 17.5885 15.178V15.178Z" fill="white"/>
</svg>
