<svg width="32" height="32" viewBox="0 0 32 32" fill="none" xmlns="http://www.w3.org/2000/svg">
<g clip-path="url(#clip0)">
<path d="M25.5961 16.244C25.414 16.0013 25.0697 15.9521 24.827 16.1341C24.7104 16.2216 24.6332 16.3518 24.6127 16.4962L24.3078 18.6332C24.3005 18.6607 24.2908 18.6875 24.2792 18.7134C24.8395 17.9695 25.2917 17.1499 25.6225 16.2792L25.5961 16.244Z" fill="#CB73E9"/>
<path d="M23.7637 19.1046C23.7378 19.1046 23.7119 19.103 23.6862 19.0997L20.4229 18.6333C20.1226 18.5902 19.914 18.3119 19.9571 18.0115L20.262 15.8743C20.3045 15.5739 20.0954 15.2959 19.795 15.2534C19.6513 15.2331 19.5053 15.2704 19.389 15.3574L17.6618 16.6522C17.419 16.8343 17.0747 16.7851 16.8927 16.5424L14.9149 13.9054C14.7329 13.6626 14.7821 13.3183 15.0248 13.1363L16.7515 11.8414C16.9942 11.6593 17.0434 11.315 16.8614 11.0723C16.7739 10.9557 16.6437 10.8785 16.4993 10.858L14.3623 10.5526C14.0619 10.5099 13.853 10.2317 13.8958 9.93129L14.3623 6.66796C14.405 6.36759 14.6832 6.15869 14.9835 6.20147L17.1212 6.50699C17.341 6.53885 17.5582 6.43434 17.6706 6.24274C17.7873 6.05232 17.7741 5.80963 17.6376 5.63294L16.3439 3.90682C16.1618 3.66406 16.211 3.31974 16.4537 3.1377L16.7652 2.90421C16.2606 2.87983 15.7549 2.89336 15.2523 2.94487C9.82611 3.56442 5.92969 8.46543 6.54924 13.8916C6.88676 16.8475 8.53721 19.4944 11.043 21.0983C11.9578 21.6655 12.5197 22.6606 12.5329 23.7369V25.9569C12.5329 26.8672 13.2707 27.6051 14.181 27.6051H18.576C19.4862 27.6051 20.2241 26.8672 20.2241 25.9569V23.7825C20.238 22.6809 20.8114 21.6621 21.7458 21.0785C22.6119 20.5167 23.3854 19.8235 24.0384 19.0239C23.9555 19.0746 23.8608 19.1025 23.7637 19.1046Z" fill="#CB73E9"/>
<path d="M14.1806 30.3519V30.9012C14.1806 31.5081 14.6725 32 15.2793 32H17.4768C18.0837 32 18.5756 31.5081 18.5756 30.9012V30.3519H14.1806Z" fill="#CB73E9"/>
<path d="M10.7463 21.562C10.4208 21.3509 10.1073 21.1218 9.80742 20.8758C8.97807 22.4903 6.99704 23.1267 5.38257 22.2974C4.28369 21.7329 3.59423 20.5999 3.59787 19.3645C3.60041 17.7035 4.83739 16.3034 6.48537 16.0963C6.28375 15.4899 6.1381 14.8663 6.05027 14.2333L5.95413 14.6904C5.82928 15.2842 5.2466 15.6644 4.6528 15.5395C4.51058 15.5097 4.37571 15.4518 4.25602 15.3694L3.11333 14.5849L2.11237 15.5837L2.89907 16.7275C3.24339 17.2271 3.11745 17.9114 2.61779 18.2557C2.49796 18.3382 2.36295 18.3962 2.2206 18.4261L0.851013 18.7146V20.0199L2.2206 20.3083C2.8144 20.4333 3.19443 21.0161 3.06938 21.6099C3.03937 21.7524 2.98127 21.8876 2.89852 22.0075L2.11237 23.1452L3.11333 24.144L4.25492 23.3573C4.75457 23.013 5.43882 23.1389 5.78313 23.6386C5.86568 23.7584 5.92364 23.8934 5.95358 24.0358L6.24145 25.4076H7.5473L7.83518 24.038C7.96016 23.4442 8.54283 23.0641 9.13664 23.1891C9.27899 23.219 9.414 23.277 9.53383 23.3595L10.6749 24.144L11.8533 22.9656C11.6557 22.3849 11.265 21.8894 10.7463 21.562Z" fill="#CB73E9"/>
<path d="M18.5756 28.1544H14.1806V29.2532H18.5756V28.1544Z" fill="#CB73E9"/>
<path d="M30.0956 9.47078C29.1945 9.34196 28.5685 8.50698 28.6974 7.60594C28.7592 7.17325 28.9904 6.78285 29.3402 6.52066L30.6274 5.55487L29.3089 3.79688L28.0217 4.76212C27.2936 5.30847 26.2605 5.1611 25.7143 4.43312C25.4523 4.08399 25.3395 3.64512 25.4006 3.2129L25.6281 1.61972L23.4531 1.30933L23.2257 2.9025C23.0968 3.80354 22.2619 4.42955 21.3608 4.30072C20.9281 4.23885 20.5377 4.00763 20.2756 3.65789L19.3098 2.36851L17.5518 3.687L18.517 4.97418C19.0632 5.7023 18.9158 6.73533 18.1877 7.28161C17.8378 7.54407 17.398 7.65669 16.965 7.59468L15.3719 7.36724L15.0598 9.54275L16.653 9.77019C17.554 9.89909 18.18 10.734 18.0512 11.635C17.9893 12.0677 17.7581 12.4581 17.4084 12.7203L16.1218 13.6861L17.4402 15.4441L18.7274 14.4789C19.4555 13.9326 20.4886 14.0801 21.0349 14.8082C21.2973 15.1581 21.4099 15.5979 21.3479 16.0308L21.1205 17.624L23.3004 17.936L23.5278 16.3429C23.6567 15.4418 24.4916 14.8158 25.3927 14.9447C25.8254 15.0065 26.2158 15.2377 26.478 15.5875L27.4438 16.8741L29.2017 15.5556L28.2332 14.2662C27.6872 13.538 27.8349 12.505 28.5632 11.959C28.9123 11.6972 29.351 11.5846 29.783 11.6457L31.3762 11.8732L31.6866 9.69822L30.0956 9.47078ZM23.3751 12.917C21.5546 12.917 20.0789 11.4412 20.0789 9.62076C20.0789 7.80028 21.5546 6.32454 23.3751 6.32454C25.1956 6.32454 26.6713 7.80028 26.6713 9.62076C26.6692 11.4403 25.1947 12.9149 23.3751 12.917Z" fill="#CB73E9"/>
</g>
<defs>
<clipPath id="clip0">
<rect x="-0.000244141" width="32" height="32" fill="white"/>
</clipPath>
</defs>
</svg>
