<svg width="32" height="32" viewBox="0 0 32 32" fill="none" xmlns="http://www.w3.org/2000/svg">
<g clip-path="url(#clip0)">
<path d="M7.67262 19.1574V9.79786C7.67262 9.06461 7.866 8.37618 8.20312 7.77911C7.43687 7.77911 2.83325 7.77911 2.06325 7.77911V7.77949C0.944122 7.78724 0.0391846 8.69661 0.0391846 9.81755V19.177C0.0391846 19.8094 0.55181 20.3221 1.18418 20.3221H2.67331L3.08868 28.8604C3.17368 30.6075 4.61493 31.9804 6.36412 31.9804C8.07606 31.9804 9.48675 30.6367 9.56987 28.9267L9.89593 22.2237C8.58143 21.7925 7.67262 20.558 7.67262 19.1574Z" fill="#CB73E9"/>
<path d="M25.7611 6.57343C27.5655 6.57343 29.0283 5.11069 29.0283 3.30631C29.0283 1.50193 27.5655 0.0391846 25.7611 0.0391846C23.9568 0.0391846 22.494 1.50193 22.494 3.30631C22.494 5.11069 23.9568 6.57343 25.7611 6.57343Z" fill="#CB73E9"/>
<path d="M30.0292 7.80158L30.0293 7.79883C29.5237 7.79883 24.9136 7.79883 23.8082 7.79883C24.1384 8.39133 24.3273 9.07283 24.3273 9.79802V19.1575C24.3273 20.5378 23.448 21.7402 22.194 22.1933L22.5193 28.8801C22.6043 30.6272 24.0455 32.0001 25.7947 32.0001C27.5067 32.0001 28.9173 30.6564 29.0005 28.9465L29.419 20.3418H30.8157C31.448 20.3418 31.9607 19.8292 31.9607 19.1968V9.8372C31.9608 8.7472 31.1053 7.85714 30.0292 7.80158Z" fill="#CB73E9"/>
<path d="M20.3135 7.76227L20.3137 7.75952H17.0828L17.7157 8.3924C17.8644 8.54108 17.8644 8.78227 17.7157 8.93096L17.0483 9.59833L17.5679 15.411C17.5859 15.6121 17.5318 15.813 17.4151 15.9777L16.3105 17.5385C16.239 17.6394 16.1232 17.6994 15.9997 17.6994C15.8762 17.6994 15.7602 17.6395 15.6888 17.5385L14.5842 15.9777C14.4677 15.813 14.4135 15.6121 14.4314 15.411L14.951 9.59833L14.2836 8.93096C14.1349 8.78227 14.1349 8.54108 14.2836 8.3924L14.9165 7.75952H11.7781V7.7599C10.659 7.76765 9.75415 8.67696 9.75415 9.79796V19.1575C9.75415 19.7898 10.2668 20.3025 10.8992 20.3025H12.3883L12.4895 22.3843L12.8036 28.8408C12.8886 30.5879 14.3298 31.9608 16.079 31.9608C17.791 31.9608 19.2017 30.6171 19.2848 28.9071L19.6021 22.3843L19.7033 20.3025H21.1C21.7323 20.3025 22.245 19.7898 22.245 19.1575V9.7979H22.245C22.2451 8.70796 21.3896 7.8179 20.3135 7.76227Z" fill="#CB73E9"/>
<path d="M16.0462 0C14.2419 0 12.7792 1.46269 12.7792 3.267C12.7792 5.07094 14.2423 6.53413 16.0462 6.53413C17.8503 6.53413 19.3132 5.07075 19.3132 3.26713C19.3132 1.46269 17.8505 0 16.0462 0Z" fill="#CB73E9"/>
<path d="M6.33072 6.5536C8.13511 6.5536 9.59785 5.09086 9.59785 3.28647C9.59785 1.48209 8.13511 0.0193481 6.33072 0.0193481C4.52634 0.0193481 3.0636 1.48209 3.0636 3.28647C3.0636 5.09086 4.52634 6.5536 6.33072 6.5536Z" fill="#CB73E9"/>
</g>
<defs>
<clipPath id="clip0">
<rect x="-0.000244141" width="32" height="32" fill="white"/>
</clipPath>
</defs>
</svg>
