<svg width="32" height="32" viewBox="0 0 32 32" fill="none" xmlns="http://www.w3.org/2000/svg">
<g clip-path="url(#clip0)">
<path d="M16 24.8619C18.6781 24.8619 20.8567 22.6831 20.8567 20.0051C20.8567 17.3271 18.6781 15.1484 16 15.1484C13.3219 15.1484 11.1432 17.3271 11.1432 20.0051C11.1432 22.6831 13.3219 24.8619 16 24.8619ZM15.0625 16.6228H16.9375V19.0676H18.3266V20.9426H15.0625V16.6228Z" fill="#CB73E9"/>
<path d="M-0.000244141 29.636H31.9998V10.8771H-0.000244141V29.636ZM15.9998 13.2734C19.7117 13.2734 22.7315 16.2932 22.7315 20.0051C22.7315 23.717 19.7117 26.7368 15.9998 26.7368C12.2878 26.7368 9.26803 23.717 9.26803 20.0051C9.26803 16.2932 12.2878 13.2734 15.9998 13.2734Z" fill="#CB73E9"/>
<path d="M31.9998 4.60882H28.2341V2.36407H26.3592V4.60882H20.7029V2.36407H18.8279V4.60882H13.1716V2.36407H11.2966V4.60882H5.64036V2.36407H3.76537V4.60882H-0.000244141V9.00205H31.9998V4.60882Z" fill="#CB73E9"/>
</g>
<defs>
<clipPath id="clip0">
<rect x="-0.000244141" width="32" height="32" fill="white"/>
</clipPath>
</defs>
</svg>
