<svg width="315" height="509" viewBox="0 0 315 509" fill="none" xmlns="http://www.w3.org/2000/svg">
<path d="M244 340H172V510H244V340Z" fill="white"/>
<path d="M140 340H71V510H140V340Z" fill="white"/>
<path d="M213 170H71V340H213V170Z" fill="white"/>
<path d="M244 0H70.9995V170H244V0Z" fill="white"/>
<path d="M315 170H244V340H315V170Z" fill="white"/>
<path d="M71 170H0V340H71V170Z" fill="white"/>
<path d="M268 51H244V93H268V51Z" fill="white"/>
<path d="M71 51H47V93H71V51Z" fill="white"/>
<path d="M132 32H93V71H132V32Z" fill="#A136C7"/>
<path d="M193 32H154V71H193V32Z" fill="#A136C7"/>
</svg>
